<svg width="688" height="590" fill="none" xmlns="http://www.w3.org/2000/svg"><path opacity=".4" d="M624.608 41.41C479.832-27.482 415.97 160.91 316.139 191.906c-99.745 45.347-195.923-7.73-255.31 37.768-94.135 72.12-52.818 198.289 7.446 251.376 86.42 76.13 239.997 48.73 398.738-33.588C665.895 344.328 751.551 101.817 624.608 41.41Z" fill="#98C3E8"/><path opacity=".2" d="M143.5 116.5c5 12.5-10 32-31.5 38.5-18.5 5.593-36.5 5-41.5-8-4.423-11.5 9.5-24 25.5-30.5s42.5-12.5 47.5 0ZM307 91c-3.891-9.94 9.816-33.134 26.803-38.202 14.616-4.36 28.308-14.634 32.197-4.298 3.44 9.144-7.091 29.825-19.74 34.915C333.612 88.505 310.891 100.94 307 91ZM295.793 583.215c-3.892-9.939 8.023-25.349 25.009-30.416 14.617-4.361 28.813-3.814 32.702 6.522 3.44 9.144-7.595 19.004-20.244 24.094-12.648 5.09-33.576 9.74-37.467-.2ZM471.573 532.55c-8.095-19.03 17.706-61.315 53-71 30.369-8.334 79.409 8.71 87.5 28.5 7.157 17.505-39.72 14.61-65.999 24.343-26.279 9.733-66.407 37.186-74.501 18.157Z" fill="#98C3E8"/><mask id="mask0_1_28" style="mask-type:alpha" maskUnits="userSpaceOnUse" x="20" y="30" width="648" height="490"><path d="M606.962 42.944C466.39-19.13 410.042 163.48 315.141 196.025c-94.447 46.315-188.023-1.94-243.777 43.392-88.377 71.856-45.503 191.801 13.642 241.07 84.818 70.654 231.336 40.058 381.384-43.393C654.38 332.539 730.22 97.374 606.962 42.944Z" fill="#98C3E8"/></mask><g mask="url('#mask0_1_28')"><path fill="url('#paint0_linear_1_28')" d="M-85.083-50.598h805.162v681.485H-85.083z"/><path d="M16.509 166.467c73.827 37.23 156.489 141.437 156.489 191.195 0 61.207-129.777 155.016-189.301 208.231l507.958 32.812c-18.089-80.979-63.761-261.005-35.967-300.989 35.967-51.742 181.519-39.122 263.129-29.657l22.085-230.317C701.149 54.36 612.177 102.105 563.59 89.485c-44.975-11.682-131.249-62.049-167.848-94.02" stroke="#fff" stroke-opacity=".2" stroke-width="15"/><path d="M206.441 109.677c20.192 105.167 75.09 297.96 133.142 227.793 72.566-87.71 129.987-201.291 184.253-126.201 43.413 60.071 107.271 178.574 133.773 230.316" stroke="#fff" stroke-opacity=".2" stroke-width="15"/><path fill-rule="evenodd" clip-rule="evenodd" d="M434 171a8 8 0 1 1-16 0 8 8 0 0 1 16 0ZM103 344a8 8 0 1 0 0-16 8 8 0 0 0 0 16Zm174 102a8 8 0 1 0 0-16 8 8 0 0 0 0 16Zm274-118a8 8 0 1 0 0-16 8 8 0 0 0 0 16Z" fill="#fff" fill-opacity=".6"/><circle cx="73" cy="423" r="18" stroke="#fff" stroke-opacity=".4" stroke-width="8"/><circle cx="653" cy="146" r="18" stroke="#fff" stroke-opacity=".4" stroke-width="8"/><circle cx="403" cy="379" r="18" stroke="#fff" stroke-opacity=".4" stroke-width="8"/></g><g filter="url('#filter0_d_1_28')"><rect x="453" y="100" width="88" height="88" rx="10" fill="#fff"/></g><path d="M493 160v-12h8v12h10v-16h6l-20-18-20 18h6v16h10Z" fill="#5A98D0"/><g filter="url('#filter1_d_1_28')"><path d="M440.423 10h-27.431c-3.785 0-6.854 3.047-6.854 6.807v27.242c0 3.76 3.069 6.807 6.854 6.807h27.431c3.785 0 6.853-3.047 6.853-6.807V16.807c0-3.76-3.068-6.807-6.853-6.807Z" fill="#56CCF2"/></g><path d="M437 29h-4.17l3.24-3.24-1.41-1.42L430 29h-2v-2l4.66-4.66-1.42-1.41-3.24 3.24V20h-2v4.17l-3.24-3.24-1.42 1.41L426 27v2h-2l-4.66-4.66-1.41 1.42 3.24 3.24H417v2h4.17l-3.24 3.24 1.41 1.42L424 31h2v2l-4.66 4.66 1.42 1.41 3.24-3.24V40h2v-4.17l3.24 3.24 1.42-1.41L428 33v-2h2l4.66 4.66 1.41-1.42-3.24-3.24H437v-2Z" fill="#fff"/><g filter="url('#filter2_d_1_28')"><path d="M614.284 113h-27.43c-3.785 0-6.854 3.048-6.854 6.807v27.242c0 3.76 3.069 6.807 6.854 6.807h27.43c3.786 0 6.854-3.047 6.854-6.807v-27.242c0-3.759-3.068-6.807-6.854-6.807Z" fill="#F2C94C"/></g><path d="M610 130c0-5-4-9-9-9s-9 4-9 9c0 3.1 1.6 5.9 4 7.5v2.5c0 1.3.8 2.4 2 2.8v.2c0 1.7 1.3 3 3 3s3-1.3 3-3v-.2c1.2-.4 2-1.5 2-2.8v-2.5c2.4-1.6 4-4.4 4-7.5Zm-16 0c0-3.9 3.1-7 7-7s7 3.1 7 7c0 3.5-2.6 6.4-6 6.9v-2.5l1.7-1.7c.4-.4.4-1 0-1.4-.4-.4-1-.4-1.4 0l-1.3 1.3-1.3-1.3c-.4-.4-1-.4-1.4 0-.4.4-.4 1 0 1.4l1.7 1.7v2.5c-3.4-.5-6-3.4-6-6.9Zm7 14c-.6 0-1-.4-1-1h2c0 .6-.4 1-1 1Zm3-4c0 .6-.4 1-1 1h-4c-.6 0-1-.4-1-1v-1.5c.9.3 1.9.5 3 .5s2.1-.2 3-.5v1.5Z" fill="#fff"/><g filter="url('#filter3_d_1_28')"><path d="M394.284 113h-27.43c-3.785 0-6.854 3.048-6.854 6.807v27.242c0 3.76 3.069 6.807 6.854 6.807h27.43c3.786 0 6.854-3.047 6.854-6.807v-27.242c0-3.759-3.068-6.807-6.854-6.807Z" fill="#F58A8A"/></g><path d="M387 129h-1v-2c0-2.76-2.24-5-5-5s-5 2.24-5 5v2h-1c-1.1 0-2 .9-2 2v10c0 1.1.9 2 2 2h12c1.1 0 2-.9 2-2v-10c0-1.1-.9-2-2-2Zm-6 9c-1.1 0-2-.9-2-2s.9-2 2-2 2 .9 2 2-.9 2-2 2Zm3.1-9h-6.2v-2c0-1.71 1.39-3.1 3.1-3.1 1.71 0 3.1 1.39 3.1 3.1v2Z" fill="#fff"/><g filter="url('#filter4_d_1_28')"><path d="M568.284 10h-27.43c-3.785 0-6.854 3.047-6.854 6.807v27.242c0 3.76 3.069 6.807 6.854 6.807h27.43c3.786 0 6.854-3.047 6.854-6.807V16.807c0-3.76-3.068-6.807-6.854-6.807Z" fill="#6FCF97"/></g><path d="M560.311 24.896H543.98v10.207h16.331V24.896ZM564.713 26.927l-3.605 1.516V31.6l3.605 1.515h1.307v-6.188h-1.307Z" fill="#fff"/><path d="M500.39 183c-1.116 4.364.397 6.88 1.588 7.5 2.362 1.23 4.999 2.77 4.999 2.77s16.429 28.144 21.191 30.159c5.556 2.349 18.254 3.571 18.254 3.571l5.556-11.111s-12.699-2.778-18.254-3.968c-3.744-.803-20.238-18.651-20.238-18.651l3.174-5.556h-5.952c-4.365-3.174-6.731-9.714-6.731-9.714s-2.824 2.02-3.587 5Z" fill="url('#paint1_linear_1_28')"/><path d="M565.478 233.5c-2-2-13.5-5.167-19-6.5l5.5-11c2.166 0 8.5-.5 16.5-2.5 10-2.5 13.5-11.5 25-2 9.2 7.6 25.166 40.833 32 56.5-10.747 10.243-17.884 13.569-32 16.5-.834-1.667-3.3-7.3-6.5-16.5-4-11.5-16.5-11.5-18.5-15.5s-.5-16.5-3-19Z" fill="url('#paint2_linear_1_28')"/><path d="M601.478 347c-3.6-8-3.667-46-5-63.5 12.193-2.397 18.633-5.484 29-16 0 0 17 8 16 26.5s6.52 27.841 11 34c4 5.5 13.5 17.167 18.5 25l-5 9.5c-5.5-5.833-21.6-17.7-30-24.5-8.4-6.8-11.167-23.833-12.5-33-.834 9.667-5 27.4-3 33 2 5.6 23.5 22.5 32 31l-3 8.5c-14.5-6.833-44.4-22.5-48-30.5Z" fill="url('#paint3_linear_1_28')"/><path d="M559.477 199.5c.4-1.6-.166-6.333.501-8 4.8.8 7.499 4.167 8.499 5.5 1-.167 2.435-.631 3 .5.5 1 0 3-1.5 4.5l3.5 9.5c-1.658 1.077-2.668 1.439-4.5 2 1-2.5.5-4.5 0-5.5-3.6 2.8-5 2.667-6.5 2.5l-1.5-6.5-2.499.5c.5-.833.599-3.4.999-5Z" fill="url('#paint4_linear_1_28')"/><path d="M568.477 197c-2-2.8-6.833-4.833-9-5.5-4-3-2-9.5 7.5-12.5s13.5 5 15.5 7 3 8.5 12 12.5 8.5-1 14-1 8 3.5 7 6.5-1.5 6.5 4.5 10.5.5 9.5 0 15.5-8.5 3-17 3-7 0-8.5-5.5-4-7.5-7-9-10-.5-11.5-2c-1.2-1.2-4.5-10.167-6-14.5.667-1 1.9-3.3 1.5-4.5-.4-1.2-2.166-.833-3-.5Z" fill="#F2994A"/><path d="m549.478 257.5 24-1.5c2.8.4 7.5 3.833 9.5 5.5-.667 1.5-2.6 4.5-5 4.5s-20-3-28.5-4.5h-2V254l2 3.5Z" fill="url('#paint5_linear_1_28')"/><path d="M547.478 265v-17h-8.5v17h8.5Z" fill="#F2C94C"/><path d="M665.978 391.5c-2.4-.4-12.167-9.667-16.5-14l3-8.5c2 .833 6.2 2.3 7 3.5 1 1.5 9.5 19.5 6.5 19ZM677.978 380.5c-1.2-2-8.5-11.667-12-18l5-9.5c2.333 2 2.5 2 5 5.5 1.162 1.627 3.5 24.5 2 22Z" fill="#5A98D0"/><path opacity=".2" d="m626.478 290.5-3 15c.5 5.5 3.5 19 8.5 28.5-6-19-4-33.167-5.5-43.5Z" fill="#000"/><path d="m196 515-1.5-5 8-1.5c3.833 2 11.2 6.4 10 8-.4.8-11.167-.667-16.5-1.5ZM155.5 468l4.5 7.5c-.333 5.167-1.4 15.3-3 14.5-1.6-.8-6.667-13.667-9-20l7.5-2Z" fill="#D06262"/><path d="M129.328 422.993c-5.329-5.535-10.172-15.968-11.927-20.493 5.128-2.481 16.523-8.148 21.083-10.978 4.56-2.829 13.209-9.248 16.963-12.104 2.19 1.974 8.563 6.844 16.534 10.53 20.471 9.665 32.163 22.147 36.204 33.324 3.233 8.941-10.011 22.177-17.534 27.722-4.36-7.408-6.983-10.404-12.151-17.46l1.757-8.196-10.324-3.067c1.526 2.036 6.528 8.739 14.325 19.269 14.07 17.585 18.942 47.632 19.62 60.457-2.625.576-9.088 1.64-13.941 1.283-.573-6.23-8.379-20.069-15.831-32.321-1.516 1.814-3.618 3.983-4.842 4.095-6.194-1.84-8.113-9.965-8.298-13.798l4.681-3.921c-.641-1.025-1.242-1.986-1.791-2.872-7.664-12.35-27.866-24.551-34.528-31.47Z" fill="#1F3F68"/><path d="M157.347 378.239c-14.534 11.212-44.619 31.318-48.685 22.052-5.082-11.583-4.086-11.675-6.896-14.931-2.81-3.257-3.497-10.725-4.768-13.621-.639-1.455-5.787-7.822-9.903-15.659 0 0-.123-.227-.332-.641-2.922-5.702-5.23-12.119-4.85-17.962.29-8.563 6.803-14.086 6.803-14.086 3.882-4.138 7.523-4.833 8.784-4.721l.023.015c3.035 2.064 7.522 5.116 9.111 4.969 1.594-.146 3.866-3.154 5.366-4.654 7.606.807 9.929-1.141 15.874-.33 7.331 1 27.126 11.33 42.626-16.17 1.54.361 5.011 1.729 7.5 1.5-8.5 25-16 32.781-23 35.231-5.372 1.881-9.605 2.405-12.948 2.371-.614 3.261-1.429 8.622-2.789 14.089 2.795 5.116 5.749 9.815 8.069 11.921 6.026 5.471 12.831 8.491 10.015 10.627Z" fill="#fff"/><path d="m157.062 407.89 13.415 14.833 9.78 2.616-.583 4.572c2.245-2.884 5.123-9.81-1.329-14.439-6.451-4.628-16.877-6.983-21.283-7.582ZM165.624 457.313l8.299 13.798-1.356 1.631c-1.225-2.398-4.441-4.612-7.16-6.873-2.175-1.808-2.631-4.946-2.587-6.289l2.804-2.267ZM127.067 382.028c-14.198-1.506-31.464-16.353-38.322-23.589 15.859 14.107 34.287 17.935 40.124 15.892 4.67-1.635 8.25-13.804 10.131-18.831l3.799 6.503c.671 7.303-1.535 21.531-15.732 20.025ZM121.967 353.877c-3.148.575-11.294-6.325-14.949-9.671C120.473 354.014 120.5 349 137.5 337c-.738 1.072-8 15.5-15.533 16.877Z" fill="#000" fill-opacity=".2"/><path d="M142.5 339.5c-1.713-.344-3.204-.924-5-2.5l1.5-3.5c-.167-.833-.4-2.7 0-3.5.4-.8 2-1.667 2.5-2l-.5 2.5 2.5-3 4 3.5-.5 3.5-3 1.5-1.5 3.5ZM179 299l-1 5c-1.6.4-5.833-.833-7.5-1.5.5-1.5 2.1-5.5 2.5-7.5.4-2 4.167-4.167 6-5h2l-2 3.5v5.5Z" fill="#F2994A"/><path d="M95 308.5c.8 1.6 3 5 4 6.5.667-1.333 1.6-4.3 0-5.5-1.6-1.2-3-3.167-3.5-4 .5-.333 1.8-1 3-1-.8-6 3.333-8.167 5.5-8.5l8.5-.5.5 2.5c3.167-3 8.9-9.5 6.5-11.5-3-2.5-12 4-18 4s-8.5 3-10 6 2.5 10 3.5 12Z" fill="#316099"/><path d="M106.5 324c-1.6 0-6.167-3.167-9-5 1.333-.667 2-3.2 2-4 0-1 1-5 0-5.5s-4-2.5-4-3.5c0-.8 2-1 3-1-.333-1.667-.4-5.5 2-7.5s9-2.167 12-2c.167.667.8 3.5 2 9.5s-1.5 8.833-3 9.5l.5 4.5c-1.167 1.5-3.9 5-5.5 5Z" fill="#F2994A"/><path d="m202.5 508.5-.5-6c-3.531.946-5.629 1.113-9.5 1l2 6.5 8-1.5ZM160 475.5l6-2c-2.678-3.077-3.579-4.832-4.5-8l-6 2.5 4.5 7.5Z" fill="#98C3E8"/><rect opacity=".8" x="187" y="228" width="266.284" height="189.301" rx="5" fill="url('#paint6_linear_1_28')"/><path d="M187 233a5 5 0 0 1 5-5h71.983v189.301H192a5 5 0 0 1-5-5V233Z" fill="#fff"/><circle cx="199" cy="240" r="4" fill="#FA9595"/><circle cx="212" cy="240" r="4" fill="#FDF397"/><circle cx="224" cy="240" r="4" fill="#C1FEBB"/><path opacity=".4" fill-rule="evenodd" clip-rule="evenodd" d="M196 334h58v7h-58v-7Zm0 14h58v7h-58v-7Zm39 16h-39v7h39v-7Z" fill="#5A98D0"/><path opacity=".1" fill-rule="evenodd" clip-rule="evenodd" d="M373 253h58v7h-58v-7Zm0 14h58v7h-58v-7Zm39 16h-39v7h39v-7Z" fill="#000"/><g filter="url('#filter5_d_1_28')"><rect x="179" y="254" width="81" height="50" rx="5" fill="#56CCF2"/></g><path d="M203.344 276.136c-.656-.896-1.584-1.344-2.8-1.344-1.104 0-2.032.4-2.816 1.216-.784.816-1.168 1.808-1.168 2.992 0 1.168.384 2.176 1.168 2.992.784.816 1.712 1.216 2.816 1.216 1.216 0 2.144-.448 2.8-1.36V283h1.728v-8h-1.728v1.136Zm-4.336 4.704c-.48-.496-.72-1.104-.72-1.84s.24-1.344.72-1.824c.48-.496 1.088-.736 1.808-.736s1.328.24 1.808.736c.48.48.72 1.088.72 1.824s-.24 1.344-.72 1.84c-.48.48-1.088.72-1.808.72s-1.328-.24-1.808-.72Zm13.07-9.248c-2.368-.144-3.616 1.056-3.616 3.248v.16h-1.216v1.664h1.216V283h1.728v-6.336h1.888V275h-1.888v-.16c0-1.168.624-1.696 1.888-1.584v-1.664Zm3.539 3.408h-1.728v8h1.728v-4.032c0-.816.24-1.408.736-1.76.496-.368 1.072-.528 1.728-.48v-1.872c-1.2 0-2.032.496-2.464 1.488V275Zm6.173-1.52c.448-.448.448-1.12.016-1.552a1.083 1.083 0 0 0-1.568 0c-.432.432-.432 1.104 0 1.552.448.432 1.12.432 1.552 0Zm.096 9.52v-8h-1.728v8h1.728Zm9.142-6.864c-.656-.896-1.584-1.344-2.8-1.344-1.104 0-2.032.4-2.816 1.216-.784.816-1.168 1.808-1.168 2.992 0 1.168.384 2.176 1.168 2.992.784.816 1.712 1.216 2.816 1.216 1.216 0 2.144-.448 2.8-1.36V283h1.728v-8h-1.728v1.136Zm-4.336 4.704c-.48-.496-.72-1.104-.72-1.84s.24-1.344.72-1.824c.48-.496 1.088-.736 1.808-.736s1.328.24 1.808.736c.48.48.72 1.088.72 1.824s-.24 1.344-.72 1.84c-.48.48-1.088.72-1.808.72s-1.328-.24-1.808-.72Zm13.087-6.048c-1.136 0-1.952.416-2.48 1.232V275h-1.728v8h1.728v-4.288c0-1.552.816-2.304 2.032-2.304 1.104 0 1.792.656 1.792 1.856V283h1.728v-4.912c0-2.048-1.232-3.296-3.072-3.296Z" fill="#fff"/><rect x="281" y="246" width="79" height="77" rx="5" fill="#EB5757"/><g clip-path="url('#clip0_1_28')"><path d="M312 271v28l22-14-22-14Z" fill="#fff"/></g><g filter="url('#filter6_d_1_28')"><rect x="281" y="336" width="154" height="63" rx="5" fill="#6FCF97"/></g><path d="M294.5 381c9.5-6.5 13.5-15 31.5-15s19.58 10 30.5 10c13 0 25.5-19.5 39.5-19.5s17.5 10 25 10.5" stroke="#000" stroke-opacity=".1" stroke-width="2" stroke-linecap="round" stroke-linejoin="round"/><path d="M294 381.5c9.5-6.5 12-25.5 30-25.5s22.08 16.5 33 16.5c13 0 24.5-27 38.5-27s18.5 21 26 21.5" stroke="#fff" stroke-width="2" stroke-linecap="round" stroke-linejoin="round"/><defs><linearGradient id="paint0_linear_1_28" x1="375.616" y1="-96.319" x2="337.793" y2="574.507" gradientUnits="userSpaceOnUse"><stop stop-color="#D1ECFF"/><stop offset="1" stop-color="#1070B1"/></linearGradient><linearGradient id="paint1_linear_1_28" x1="559.735" y1="190.576" x2="507.964" y2="224.395" gradientUnits="userSpaceOnUse"><stop stop-color="#FFF8E1"/><stop offset="1" stop-color="#FFCC80"/></linearGradient><linearGradient id="paint2_linear_1_28" x1="585.978" y1="207.24" x2="585.978" y2="284.5" gradientUnits="userSpaceOnUse"><stop stop-color="#AF6CED"/><stop offset="1" stop-color="#5E199D"/></linearGradient><linearGradient id="paint3_linear_1_28" x1="633.728" y1="267.5" x2="633.728" y2="377.5" gradientUnits="userSpaceOnUse"><stop stop-color="#EB5757"/><stop offset="1" stop-color="#872727"/></linearGradient><linearGradient id="paint4_linear_1_28" x1="575.716" y1="197.146" x2="557.595" y2="204.755" gradientUnits="userSpaceOnUse"><stop stop-color="#FFF8E1"/><stop offset="1" stop-color="#FFCC80"/></linearGradient><linearGradient id="paint5_linear_1_28" x1="588.276" y1="257.08" x2="576.596" y2="278.359" gradientUnits="userSpaceOnUse"><stop stop-color="#FFF8E1"/><stop offset="1" stop-color="#FFCC80"/></linearGradient><linearGradient id="paint6_linear_1_28" x1="193.393" y1="297.155" x2="498.893" y2="330.655" gradientUnits="userSpaceOnUse"><stop offset=".127" stop-color="#fff"/><stop offset=".972" stop-color="#fff" stop-opacity=".8"/></linearGradient><filter id="filter0_d_1_28" x="403" y="50" width="188" height="188" filterUnits="userSpaceOnUse" color-interpolation-filters="sRGB"><feFlood flood-opacity="0" result="BackgroundImageFix"/><feColorMatrix in="SourceAlpha" values="0 0 0 0 0 0 0 0 0 0 0 0 0 0 0 0 0 0 127 0" result="hardAlpha"/><feOffset/><feGaussianBlur stdDeviation="25"/><feColorMatrix values="0 0 0 0 0.0627451 0 0 0 0 0.439216 0 0 0 0 0.694118 0 0 0 0.25 0"/><feBlend in2="BackgroundImageFix" result="effect1_dropShadow_1_28"/><feBlend in="SourceGraphic" in2="effect1_dropShadow_1_28" result="shape"/></filter><filter id="filter1_d_1_28" x="396.138" y="0" width="71.138" height="70.856" filterUnits="userSpaceOnUse" color-interpolation-filters="sRGB"><feFlood flood-opacity="0" result="BackgroundImageFix"/><feColorMatrix in="SourceAlpha" values="0 0 0 0 0 0 0 0 0 0 0 0 0 0 0 0 0 0 127 0" result="hardAlpha"/><feOffset dx="5" dy="5"/><feGaussianBlur stdDeviation="7.5"/><feColorMatrix values="0 0 0 0 0 0 0 0 0 0 0 0 0 0 0 0 0 0 0.15 0"/><feBlend in2="BackgroundImageFix" result="effect1_dropShadow_1_28"/><feBlend in="SourceGraphic" in2="effect1_dropShadow_1_28" result="shape"/></filter><filter id="filter2_d_1_28" x="570" y="103" width="71.138" height="70.856" filterUnits="userSpaceOnUse" color-interpolation-filters="sRGB"><feFlood flood-opacity="0" result="BackgroundImageFix"/><feColorMatrix in="SourceAlpha" values="0 0 0 0 0 0 0 0 0 0 0 0 0 0 0 0 0 0 127 0" result="hardAlpha"/><feOffset dx="5" dy="5"/><feGaussianBlur stdDeviation="7.5"/><feColorMatrix values="0 0 0 0 0 0 0 0 0 0 0 0 0 0 0 0 0 0 0.15 0"/><feBlend in2="BackgroundImageFix" result="effect1_dropShadow_1_28"/><feBlend in="SourceGraphic" in2="effect1_dropShadow_1_28" result="shape"/></filter><filter id="filter3_d_1_28" x="350" y="103" width="71.138" height="70.856" filterUnits="userSpaceOnUse" color-interpolation-filters="sRGB"><feFlood flood-opacity="0" result="BackgroundImageFix"/><feColorMatrix in="SourceAlpha" values="0 0 0 0 0 0 0 0 0 0 0 0 0 0 0 0 0 0 127 0" result="hardAlpha"/><feOffset dx="5" dy="5"/><feGaussianBlur stdDeviation="7.5"/><feColorMatrix values="0 0 0 0 0 0 0 0 0 0 0 0 0 0 0 0 0 0 0.15 0"/><feBlend in2="BackgroundImageFix" result="effect1_dropShadow_1_28"/><feBlend in="SourceGraphic" in2="effect1_dropShadow_1_28" result="shape"/></filter><filter id="filter4_d_1_28" x="524" y="0" width="71.138" height="70.856" filterUnits="userSpaceOnUse" color-interpolation-filters="sRGB"><feFlood flood-opacity="0" result="BackgroundImageFix"/><feColorMatrix in="SourceAlpha" values="0 0 0 0 0 0 0 0 0 0 0 0 0 0 0 0 0 0 127 0" result="hardAlpha"/><feOffset dx="5" dy="5"/><feGaussianBlur stdDeviation="7.5"/><feColorMatrix values="0 0 0 0 0 0 0 0 0 0 0 0 0 0 0 0 0 0 0.15 0"/><feBlend in2="BackgroundImageFix" result="effect1_dropShadow_1_28"/><feBlend in="SourceGraphic" in2="effect1_dropShadow_1_28" result="shape"/></filter><filter id="filter5_d_1_28" x="174" y="249" width="101" height="70" filterUnits="userSpaceOnUse" color-interpolation-filters="sRGB"><feFlood flood-opacity="0" result="BackgroundImageFix"/><feColorMatrix in="SourceAlpha" values="0 0 0 0 0 0 0 0 0 0 0 0 0 0 0 0 0 0 127 0" result="hardAlpha"/><feOffset dx="5" dy="5"/><feGaussianBlur stdDeviation="5"/><feColorMatrix values="0 0 0 0 0.0627451 0 0 0 0 0.439216 0 0 0 0 0.694118 0 0 0 0.2 0"/><feBlend in2="BackgroundImageFix" result="effect1_dropShadow_1_28"/><feBlend in="SourceGraphic" in2="effect1_dropShadow_1_28" result="shape"/></filter><filter id="filter6_d_1_28" x="271" y="330" width="174" height="83" filterUnits="userSpaceOnUse" color-interpolation-filters="sRGB"><feFlood flood-opacity="0" result="BackgroundImageFix"/><feColorMatrix in="SourceAlpha" values="0 0 0 0 0 0 0 0 0 0 0 0 0 0 0 0 0 0 127 0" result="hardAlpha"/><feOffset dy="4"/><feGaussianBlur stdDeviation="5"/><feColorMatrix values="0 0 0 0 0.435294 0 0 0 0 0.811765 0 0 0 0 0.592157 0 0 0 0.2 0"/><feBlend in2="BackgroundImageFix" result="effect1_dropShadow_1_28"/><feBlend in="SourceGraphic" in2="effect1_dropShadow_1_28" result="shape"/></filter><clipPath id="clip0_1_28"><path fill="#fff" transform="translate(296 261)" d="M0 0h48v48H0z"/></clipPath></defs></svg>